<svg xmlns="http://www.w3.org/2000/svg" width="70" height="70" viewBox="0 0 70 70" style="width: 100%; height: 100%;"><desc>Made with illustrio</desc>
  
<g class="base"><g fill="none" fill-rule="evenodd" stroke="none" class="main-fill">
    
    
  </g><g fill="none" transform="translate(20 21)" stroke="none" class="main-fill">
      <path d="M6.4 26.8C6.4 27.2 6.7 27.4 7 27.4L12.1 27.4C12.5 27.4 12.7 27.1 12.7 26.8L12.7 24.9 6.4 24.9 6.4 26.8 6.4 26.8zM7 4.4C3.1 4.4 0 7.5 0 11.4 0 15.1 2.8 18.1 6.4 18.4L6.4 18.4 6.4 23.5 12.8 23.5 12.8 18.4 14 18.4 14 4.4 7 4.4 7 4.4zM10.2 13.4L6.4 13.4C6 13.4 5.8 13.1 5.8 12.8 5.8 12.4 6.1 12.2 6.4 12.2L10.2 12.2C10.6 12.2 10.8 12.5 10.8 12.8 10.9 13.1 10.6 13.4 10.2 13.4L10.2 13.4zM10.2 10.8L6.4 10.8C6 10.8 5.8 10.5 5.8 10.2 5.8 9.8 6.1 9.6 6.4 9.6L10.2 9.6C10.6 9.6 10.8 9.9 10.8 10.2 10.9 10.5 10.6 10.8 10.2 10.8L10.2 10.8zM21.8 8.6C21.8 8.6 21.7 8.6 21.8 8.6L21.7 1.3C21.7 1.1 21.6.9 21.4.7 21.2.6 21 .6 20.8.7L15.4 3.9 15.4 19 20.8 22.3C20.9 22.4 21 22.4 21.1 22.4 21.2 22.4 21.3 22.4 21.4 22.3 21.6 22.2 21.7 22 21.7 21.7L21.7 14.8 21.8 14.8C23.5 14.8 24.9 13.4 24.9 11.7 24.9 10 23.5 8.6 21.8 8.6L21.8 8.6zM21.8 13.5C21.8 13.5 21.7 13.5 21.8 13.5L21.7 9.8 21.8 9.8C22.8 9.8 23.6 10.6 23.6 11.6 23.6 12.7 22.8 13.5 21.8 13.5L21.8 13.5zM26.3 9C26.2 9 26.1 9 26 8.9 25.7 8.7 25.6 8.3 25.8 8L27.4 5.5C27.6 5.2 28 5.1 28.3 5.3 28.6 5.5 28.7 5.9 28.5 6.2L26.9 8.7C26.7 8.9 26.5 9 26.3 9L26.3 9zM28 17.7C27.8 17.7 27.6 17.6 27.5 17.4L25.8 14.5C25.6 14.2 25.7 13.8 26 13.6 26.3 13.4 26.7 13.5 26.9 13.8L28.6 16.7C28.8 17 28.7 17.4 28.4 17.6 28.2 17.6 28.1 17.7 28 17.7L28 17.7zM29.4 12.1L26.8 12.1C26.4 12.1 26.2 11.8 26.2 11.5 26.2 11.2 26.5 10.9 26.8 10.9L29.4 10.9C29.8 10.9 30 11.2 30 11.5 30 11.8 29.7 12.1 29.4 12.1L29.4 12.1z" fill="none" stroke="none" class="main-fill"></path>
    </g></g><style>
          .main-fill {fill: #23bdff;}
          .main-stroke {stroke: #23bdff;}
          .secondary-fill {fill: #fffdf7;}
          .secondary-stroke {stroke: #fffdf7;}

          .main-fill--darken {fill: #0095d5;}
          .main-stroke--darken {stroke: #0095d5;}
          .secondary-fill--darken {fill: #ffeaaa;}
          .secondary-stroke--darken {stroke: #ffeaaa;}

          .main-fill--darkener {fill: #0072a2;}
          .main-stroke--darkener {stroke: #0072a2;}
          .secondary-fill--darkener {fill: #ffdd77;}
          .secondary-stroke--darkener {stroke: #ffdd77;}
        </style></svg>