<svg xmlns="http://www.w3.org/2000/svg" width="70" height="70" viewBox="0 0 70 70" style="width: 100%; height: 100%;"><desc>Made with illustrio</desc>
  
<g class="base"><g fill="none" fill-rule="evenodd" stroke="none" class="main-fill">
    
    
    <path fill="none" d="M16.0588235,0 C5.04275841,0 0,9.45678506 0,16.8823529 C0,20.9440107 0.774157588,25.2736762 4.32352941,30.1746324 C5.90644765,32.8149677 8.79310394,34.5882353 12.0955882,34.5882353 C14.605101,34.5882353 17.8219708,32.5715464 18.9411765,28.4117647 C21.0293831,20.8239702 29.6470588,22.618008 29.6470588,13.5882353 C29.6470588,6.08366047 23.5633984,0 16.0588235,0 Z M14.4117647,4.11764706 C16.2310556,4.11764706 17.7058824,5.22376688 17.7058824,6.58823529 C17.7058824,7.95270371 16.2310556,9.05882353 14.4117647,9.05882353 C12.5924738,9.05882353 11.1176471,7.95270371 11.1176471,6.58823529 C11.1176471,5.22376688 12.5924738,4.11764706 14.4117647,4.11764706 Z M7.82352941,10.2941176 C9.41540888,10.2941176 10.7058824,11.2158842 10.7058824,12.3529412 C10.7058824,13.4899981 9.41540888,14.4117647 7.82352941,14.4117647 C6.23164994,14.4117647 4.94117647,13.4899981 4.94117647,12.3529412 C4.94117647,11.2158842 6.23164994,10.2941176 7.82352941,10.2941176 Z M7.41176471,18.5294118 C9.00364418,18.5294118 10.2941176,19.4511784 10.2941176,20.5882353 C10.2941176,21.7252922 9.00364418,22.6470588 7.41176471,22.6470588 C5.81988524,22.6470588 4.52941176,21.7252922 4.52941176,20.5882353 C4.52941176,19.4511784 5.81988524,18.5294118 7.41176471,18.5294118 Z M11.1176471,26.3529412 C12.7095265,26.3529412 14,27.2747078 14,28.4117647 C14,29.5488216 12.7095265,30.4705882 11.1176471,30.4705882 C9.52576759,30.4705882 8.23529412,29.5488216 8.23529412,28.4117647 C8.23529412,27.2747078 9.52576759,26.3529412 11.1176471,26.3529412 Z" transform="translate(20.176 17.706)" stroke="none" class="main-fill"></path>
  </g></g><style>
          .main-fill {fill: #23bdff;}
          .main-stroke {stroke: #23bdff;}
          .secondary-fill {fill: #fffdf7;}
          .secondary-stroke {stroke: #fffdf7;}

          .main-fill--darken {fill: #0095d5;}
          .main-stroke--darken {stroke: #0095d5;}
          .secondary-fill--darken {fill: #ffeaaa;}
          .secondary-stroke--darken {stroke: #ffeaaa;}

          .main-fill--darkener {fill: #0072a2;}
          .main-stroke--darkener {stroke: #0072a2;}
          .secondary-fill--darkener {fill: #ffdd77;}
          .secondary-stroke--darkener {stroke: #ffdd77;}
        </style></svg>