<svg xmlns="http://www.w3.org/2000/svg" width="70" height="70" viewBox="0 0 70 70" style="width: 100%; height: 100%;"><desc>Made with illustrio</desc>
  
<g class="shadow"><g fill="none" fill-rule="evenodd" stroke="none">
    
    
  </g><g fill="none" transform="translate(21 20)" stroke="none">
      <path d="M15.2,14.9 C14.9,14.7 14.6,14.4 14.4,14.1 C14.1,13.5 14.3,13 14.3,12.9 C16.1,11.6 17.3,9.5 17.3,7.1 C17.3,6 17,5 16.5,4.1 L18.5,4 C19.4,4 20.2,3 20.2,2 C20.2,1.1 19.5,0 18.5,0 L11,0.1 C10.7,0.1 10.4,0 10.1,0 C6.2,0 3,3.2 3,7.1 C3,11 6.1,14.1 10,14.2 C4.6,14.5 0.4,17.9 0.4,22.1 C0.4,26.5 5,30 10.8,30 C16.6,30 21.2,26.5 21.2,22.1 C21.2,18.9 18.8,16.2 15.2,14.9 L15.2,14.9 Z M6.4,7.1 C6.4,5.2 7.9,3.6 9.8,3.4 C10.8,3.2 11.8,3.8 11.8,3.8 C13,4.4 13.9,5.7 13.9,7.1 C13.9,9.2 12.2,10.8 10.2,10.8 C8.1,10.9 6.4,9.2 6.4,7.1 L6.4,7.1 Z M10.9,14.2 C10.9,14.2 10.8,14.2 10.9,14.2 L10.5,14.2 L10.9,14.2 L10.9,14.2 L10.9,14.2 Z M10.8,26.6 C7,26.6 3.8,24.5 3.8,22.1 C3.8,19.7 7,17.6 10.8,17.6 C11.9,17.6 13,17.8 13.9,18.1 C14.2,18.3 14.6,18.4 14.9,18.5 C16.6,19.3 17.7,20.6 17.7,22.1 C17.8,24.5 14.6,26.6 10.8,26.6 L10.8,26.6 Z" fill="none" stroke="none"></path>
      <path d="M25.9,7.7 L24.2,7.7 L24.2,6 C24.2,5.1 23.4,4.3 22.5,4.3 C21.6,4.3 20.8,5.1 20.8,6 L20.8,7.7 L19.1,7.7 C18.2,7.7 17.4,8.5 17.4,9.4 C17.4,10.3 18.2,11.1 19.1,11.1 L20.8,11.1 L20.8,12.8 C20.8,13.7 21.6,14.5 22.5,14.5 C23.4,14.5 24.2,13.7 24.2,12.8 L24.2,11.1 L25.9,11.1 C26.8,11.1 27.6,10.3 27.6,9.4 C27.6,8.5 26.8,7.7 25.9,7.7 L25.9,7.7 Z" fill="none" stroke="none"></path>
    </g></g><g class="clone"><g fill="none" fill-rule="evenodd" stroke="none" style="stroke-width: 2;" class="main-fill main-stroke">
    
    
  </g><g fill="none" transform="translate(21 20)" stroke="none" style="stroke-width: 2;" class="main-fill main-stroke">
      <path d="M15.2,14.9 C14.9,14.7 14.6,14.4 14.4,14.1 C14.1,13.5 14.3,13 14.3,12.9 C16.1,11.6 17.3,9.5 17.3,7.1 C17.3,6 17,5 16.5,4.1 L18.5,4 C19.4,4 20.2,3 20.2,2 C20.2,1.1 19.5,0 18.5,0 L11,0.1 C10.7,0.1 10.4,0 10.1,0 C6.2,0 3,3.2 3,7.1 C3,11 6.1,14.1 10,14.2 C4.6,14.5 0.4,17.9 0.4,22.1 C0.4,26.5 5,30 10.8,30 C16.6,30 21.2,26.5 21.2,22.1 C21.2,18.9 18.8,16.2 15.2,14.9 L15.2,14.9 Z M6.4,7.1 C6.4,5.2 7.9,3.6 9.8,3.4 C10.8,3.2 11.8,3.8 11.8,3.8 C13,4.4 13.9,5.7 13.9,7.1 C13.9,9.2 12.2,10.8 10.2,10.8 C8.1,10.9 6.4,9.2 6.4,7.1 L6.4,7.1 Z M10.9,14.2 C10.9,14.2 10.8,14.2 10.9,14.2 L10.5,14.2 L10.9,14.2 L10.9,14.2 L10.9,14.2 Z M10.8,26.6 C7,26.6 3.8,24.5 3.8,22.1 C3.8,19.7 7,17.6 10.8,17.6 C11.9,17.6 13,17.8 13.9,18.1 C14.2,18.3 14.6,18.4 14.9,18.5 C16.6,19.3 17.7,20.6 17.7,22.1 C17.8,24.5 14.6,26.6 10.8,26.6 L10.8,26.6 Z" fill="none" stroke="none" style="stroke-width: 2;" class="main-fill main-stroke"></path>
      <path d="M25.9,7.7 L24.2,7.7 L24.2,6 C24.2,5.1 23.4,4.3 22.5,4.3 C21.6,4.3 20.8,5.1 20.8,6 L20.8,7.7 L19.1,7.7 C18.2,7.7 17.4,8.5 17.4,9.4 C17.4,10.3 18.2,11.1 19.1,11.1 L20.8,11.1 L20.8,12.8 C20.8,13.7 21.6,14.5 22.5,14.5 C23.4,14.5 24.2,13.7 24.2,12.8 L24.2,11.1 L25.9,11.1 C26.8,11.1 27.6,10.3 27.6,9.4 C27.6,8.5 26.8,7.7 25.9,7.7 L25.9,7.7 Z" fill="none" stroke="none" style="stroke-width: 2;" class="main-fill main-stroke"></path>
    </g></g><g class="base"><g fill="none" fill-rule="evenodd" stroke="none" class="secondary-fill">
    
    
  </g><g fill="none" transform="translate(21 20)" stroke="none" class="secondary-fill">
      <path d="M15.2,14.9 C14.9,14.7 14.6,14.4 14.4,14.1 C14.1,13.5 14.3,13 14.3,12.9 C16.1,11.6 17.3,9.5 17.3,7.1 C17.3,6 17,5 16.5,4.1 L18.5,4 C19.4,4 20.2,3 20.2,2 C20.2,1.1 19.5,0 18.5,0 L11,0.1 C10.7,0.1 10.4,0 10.1,0 C6.2,0 3,3.2 3,7.1 C3,11 6.1,14.1 10,14.2 C4.6,14.5 0.4,17.9 0.4,22.1 C0.4,26.5 5,30 10.8,30 C16.6,30 21.2,26.5 21.2,22.1 C21.2,18.9 18.8,16.2 15.2,14.9 L15.2,14.9 Z M6.4,7.1 C6.4,5.2 7.9,3.6 9.8,3.4 C10.8,3.2 11.8,3.8 11.8,3.8 C13,4.4 13.9,5.7 13.9,7.1 C13.9,9.2 12.2,10.8 10.2,10.8 C8.1,10.9 6.4,9.2 6.4,7.1 L6.4,7.1 Z M10.9,14.2 C10.9,14.2 10.8,14.2 10.9,14.2 L10.5,14.2 L10.9,14.2 L10.9,14.2 L10.9,14.2 Z M10.8,26.6 C7,26.6 3.8,24.5 3.8,22.1 C3.8,19.7 7,17.6 10.8,17.6 C11.9,17.6 13,17.8 13.9,18.1 C14.2,18.3 14.6,18.4 14.9,18.5 C16.6,19.3 17.7,20.6 17.7,22.1 C17.8,24.5 14.6,26.6 10.8,26.6 L10.8,26.6 Z" fill="none" stroke="none" class="secondary-fill"></path>
      <path d="M25.9,7.7 L24.2,7.7 L24.2,6 C24.2,5.1 23.4,4.3 22.5,4.3 C21.6,4.3 20.8,5.1 20.8,6 L20.8,7.7 L19.1,7.7 C18.2,7.7 17.4,8.5 17.4,9.4 C17.4,10.3 18.2,11.1 19.1,11.1 L20.8,11.1 L20.8,12.8 C20.8,13.7 21.6,14.5 22.5,14.5 C23.4,14.5 24.2,13.7 24.2,12.8 L24.2,11.1 L25.9,11.1 C26.8,11.1 27.6,10.3 27.6,9.4 C27.6,8.5 26.8,7.7 25.9,7.7 L25.9,7.7 Z" fill="none" stroke="none" class="secondary-fill"></path>
    </g></g><style>
          .main-fill {fill: #21b7ff;}
          .main-stroke {stroke: #21b7ff;}
          .secondary-fill {fill: #f4ffff;}
          .secondary-stroke {stroke: #f4ffff;}

          .main-fill--darken {fill: #008fd3;}
          .main-stroke--darken {stroke: #008fd3;}
          .secondary-fill--darken {fill: #a7ffff;}
          .secondary-stroke--darken {stroke: #a7ffff;}

          .main-fill--darkener {fill: #006ca0;}
          .main-stroke--darkener {stroke: #006ca0;}
          .secondary-fill--darkener {fill: #74ffff;}
          .secondary-stroke--darkener {stroke: #74ffff;}
        </style></svg>