<svg xmlns="http://www.w3.org/2000/svg" width="70" height="70" viewBox="0 0 70 70" style="width: 100%; height: 100%;"><desc>Made with illustrio</desc>
  
<g class="base"><g fill="none" fill-rule="evenodd" stroke="none" class="main-fill">
    
    <path fill="none" d="M16.384375,13.3875 L16.384375,17.10625 L25.160625,17.10625 C24.268125,22.3125 20.103125,26.03125 14.896875,26.03125 C8.798125,26.03125 3.740625,20.97375 3.740625,14.875 C3.740625,8.77625 8.798125,3.71875 14.896875,3.71875 C18.020625,3.71875 20.698125,5.0575 22.631875,7.14 L25.309375,4.4625 C22.631875,1.785 19.061875,0 14.896875,0 C6.715625,0 0.021875,6.69375 0.021875,14.875 C0.021875,23.05625 6.715625,29.75 14.896875,29.75 C23.078125,29.75 29.028125,23.05625 29.028125,14.875 L29.028125,13.3875 L16.384375,13.3875 L16.384375,13.3875 Z" transform="translate(20.475 20.125)" stroke="none" class="main-fill"></path>
  </g></g><style>
          .main-fill {fill: #0071f7;}
          .main-stroke {stroke: #0071f7;}
          .secondary-fill {fill: #483900;}
          .secondary-stroke {stroke: #483900;}

          .main-fill--darken {fill: #004eaa;}
          .main-stroke--darken {stroke: #004eaa;}
          .secondary-fill--darken {fill: #000000;}
          .secondary-stroke--darken {stroke: #000000;}

          .main-fill--darkener {fill: #003777;}
          .main-stroke--darkener {stroke: #003777;}
          .secondary-fill--darkener {fill: #000000;}
          .secondary-stroke--darkener {stroke: #000000;}
        </style></svg>