<svg xmlns="http://www.w3.org/2000/svg" width="70" height="70" viewBox="0 0 70 70" style="width: 100%; height: 100%;"><desc>Made with illustrio</desc>
  
<g class="base"><g fill="none" fill-rule="evenodd" stroke="none" class="main-fill">
    
    
  </g><g fill="none" transform="translate(20.364 21.636)" stroke="none" class="main-fill">
      <path d="M29.2237273,0.393272727 C29.1588182,0.237363636 29.0353636,0.113909091 28.8794545,0.049 C28.8018182,0.0165454545 28.7190909,0 28.6363636,0 L23.5454545,0 C23.1935455,0 22.9090909,0.285090909 22.9090909,0.636363636 C22.9090909,0.987636364 23.1935455,1.27272727 23.5454545,1.27272727 L27.1001818,1.27272727 L15.8696364,12.5026364 L8.68,6.51127273 C8.48527273,6.349 8.21354545,6.31781818 7.98827273,6.43109091 L0.351909091,10.2492727 C0.0375454545,10.4064545 -0.0897272727,10.7889091 0.0674545455,11.1032727 C0.224636364,11.4176364 0.605818182,11.5461818 0.921454545,11.3877273 L8.18554545,7.75536364 L15.5018182,13.8523636 C15.6201818,13.951 15.7646364,14 15.9090909,14 C16.0726364,14 16.2355455,13.937 16.359,13.8135455 L28,2.17254545 L28,5.72727273 C28,6.07854545 28.2844545,6.36363636 28.6363636,6.36363636 C28.9882727,6.36363636 29.2727273,6.07854545 29.2727273,5.72727273 L29.2727273,0.636363636 C29.2727273,0.553636364 29.2561818,0.470909091 29.2237273,0.393272727 L29.2237273,0.393272727 Z" fill="none" stroke="none" class="main-fill"></path>
      <path d="M28.8800909,7.68472727 C28.6420909,7.58609091 28.3690909,7.64018182 28.1864545,7.82281818 L15.8696364,20.139 L8.68,14.147 C8.48527273,13.986 8.21354545,13.9548182 7.98827273,14.0668182 L0.351909091,17.885 C0.136181818,17.9931818 0,18.2133636 0,18.4545455 L0,26.0909091 C0,26.4428182 0.285090909,26.7272727 0.636363636,26.7272727 L28.6363636,26.7272727 C28.9882727,26.7272727 29.2727273,26.4428182 29.2727273,26.0909091 L29.2727273,8.27272727 C29.2727273,8.01563636 29.1180909,7.78336364 28.8800909,7.68472727 L28.8800909,7.68472727 Z" fill="none" stroke="none" class="main-fill"></path>
    </g></g><style>
          .main-fill {fill: #23bdff;}
          .main-stroke {stroke: #23bdff;}
          .secondary-fill {fill: #fffdf7;}
          .secondary-stroke {stroke: #fffdf7;}

          .main-fill--darken {fill: #0095d5;}
          .main-stroke--darken {stroke: #0095d5;}
          .secondary-fill--darken {fill: #ffeaaa;}
          .secondary-stroke--darken {stroke: #ffeaaa;}

          .main-fill--darkener {fill: #0072a2;}
          .main-stroke--darkener {stroke: #0072a2;}
          .secondary-fill--darkener {fill: #ffdd77;}
          .secondary-stroke--darkener {stroke: #ffdd77;}
        </style></svg>