<svg xmlns="http://www.w3.org/2000/svg" width="70" height="70" viewBox="0 0 70 70" style="width: 100%; height: 100%;"><desc>Made with illustrio</desc>
  
<g class="base"><g fill="none" fill-rule="evenodd" stroke="none" class="main-fill">
    
    
  </g><g fill="none" transform="translate(20 20)" stroke="none" class="main-fill">
      <path d="M25.1,2.3 C24.7,2.3 24.5,2.6 24.5,2.9 L24.5,4.4 L23,4.4 C22.6,4.4 22.4,4.7 22.4,5 C22.4,5.4 22.7,5.6 23,5.6 L25,5.6 C25.4,5.6 25.7,5.3 25.7,4.9 L25.7,3 C25.8,2.6 25.5,2.3 25.1,2.3 L25.1,2.3 Z" fill="none" stroke="none" class="main-fill"></path>
      <path d="M24.8,0 C22.1,0 19.8,2.2 19.8,5 C19.8,7.6 21.8,9.7 24.4,9.9 L24.4,24.9 L21.8,24.9 L21.8,10.2 C21.8,9.8 21.5,9.6 21.2,9.6 L14.3,9.6 L14.3,17.6 C14.3,17.8 14.2,18.1 13.9,18.2 C13.7,18.3 13.4,18.3 13.2,18.1 L11.6,16.8 L10,18.1 C9.9,18.2 9.7,18.2 9.6,18.2 C9.5,18.2 9.4,18.2 9.3,18.1 C9.2,18 9,17.8 9,17.6 L9,9.6 L2.1,9.6 C1.7,9.6 1.5,9.9 1.5,10.2 L1.5,10.8 L1.5,24.9 L0.8,24.9 C0.4,24.9 0.2,25.2 0.2,25.5 L0.2,29.3 C0.2,29.7 0.5,29.9 0.8,29.9 L25.1,29.9 C25.5,29.9 25.7,29.6 25.7,29.3 L25.7,26.1 L25.7,25.5 L25.7,9.8 C28,9.4 29.7,7.4 29.7,4.9 C29.8,2.2 27.6,0 24.8,0 L24.8,0 Z M18,21.5 C18.6,21.5 19.1,22 19.1,22.6 C19.1,23.2 18.6,23.7 18,23.7 C17.4,23.7 16.9,23.2 16.9,22.6 C16.9,22 17.4,21.5 18,21.5 L18,21.5 Z M14.2,21.5 C14.8,21.5 15.3,22 15.3,22.6 C15.3,23.2 14.8,23.7 14.2,23.7 C13.6,23.7 13,23.3 13,22.6 C13,22 13.5,21.5 14.2,21.5 L14.2,21.5 Z M4,19.8 L10.4,19.8 C10.8,19.8 11,20.1 11,20.4 C11,20.8 10.7,21 10.4,21 L4,21 C3.6,21 3.4,20.7 3.4,20.4 C3.4,20.1 3.7,19.8 4,19.8 L4,19.8 Z M4,22.3 L10.4,22.3 C10.8,22.3 11,22.6 11,22.9 C11,23.3 10.7,23.5 10.4,23.5 L4,23.5 C3.6,23.5 3.4,23.2 3.4,22.9 C3.4,22.6 3.7,22.3 4,22.3 L4,22.3 Z M5.3,28.7 L1.5,28.7 L1.5,26.1 L2.1,26.1 L5.3,26.1 L5.3,28.7 L5.3,28.7 Z M19.4,28.7 L6.6,28.7 L6.6,26.1 L19.4,26.1 L19.4,28.7 L19.4,28.7 Z M24.5,28.7 L20.7,28.7 L20.7,26.1 L21.3,26.1 L24.5,26.1 L24.5,28.7 L24.5,28.7 Z M24.8,8.6 C22.8,8.6 21.1,6.9 21.1,4.9 C21.1,2.9 22.8,1.2 24.8,1.2 C26.8,1.2 28.5,2.9 28.5,4.9 C28.5,7 26.9,8.6 24.8,8.6 L24.8,8.6 Z" fill="none" stroke="none" class="main-fill"></path>
    </g></g><style>
          .main-fill {fill: #23bdff;}
          .main-stroke {stroke: #23bdff;}
          .secondary-fill {fill: #fffdf7;}
          .secondary-stroke {stroke: #fffdf7;}

          .main-fill--darken {fill: #0095d5;}
          .main-stroke--darken {stroke: #0095d5;}
          .secondary-fill--darken {fill: #ffeaaa;}
          .secondary-stroke--darken {stroke: #ffeaaa;}

          .main-fill--darkener {fill: #0072a2;}
          .main-stroke--darkener {stroke: #0072a2;}
          .secondary-fill--darkener {fill: #ffdd77;}
          .secondary-stroke--darkener {stroke: #ffdd77;}
        </style></svg>